<svg version="1.1" id="Layer_1" xmlns="http://www.w3.org/2000/svg" xmlns:xlink="http://www.w3.org/1999/xlink" x="0px" y="0px"
	 width="100%" viewBox="0 0 227 234" enable-background="new 0 0 227 234" xml:space="preserve">
<path fill="#010116" opacity="1.000000" stroke="none" 
	d="
M228.000000,118.000000 
	C228.000000,156.959045 228.000000,195.918106 228.000000,234.938568 
	C152.453781,234.938568 76.907486,234.938568 1.000000,234.938568 
	C1.000000,210.980316 1.000000,186.958817 1.382671,162.469452 
	C3.247620,162.797760 4.996613,163.316910 6.163591,164.440536 
	C10.112612,168.242859 13.855412,172.259369 17.677029,176.194016 
	C18.796335,172.515198 17.779829,169.061676 19.036270,166.980179 
	C20.887932,163.912613 21.022285,161.422729 20.303431,158.157196 
	C18.366350,149.357697 19.581909,147.086807 27.279419,144.278290 
	C27.496069,146.502457 27.307505,148.453934 27.393719,150.393188 
	C27.634048,155.798935 27.041771,161.474106 28.510853,166.540466 
	C30.950512,174.954025 34.424587,183.088043 33.923450,192.046127 
	C33.736858,195.381638 35.285931,197.029266 37.657162,198.936493 
	C41.574509,202.087296 46.039539,205.213776 48.451313,209.400375 
	C51.007225,213.837173 54.033672,214.228424 58.153900,214.047958 
	C60.111885,213.962204 62.113503,214.265045 64.058029,214.605194 
	C68.198708,215.329559 72.284256,216.598526 76.447769,216.914322 
	C84.717224,217.541550 93.021805,217.762405 101.316345,217.982666 
	C107.072105,218.135498 112.835419,217.986649 118.595192,218.011734 
	C121.678810,218.025162 124.764061,218.220612 127.845047,218.158508 
	C133.346191,218.047607 138.843399,217.732712 144.344604,217.633331 
	C151.509903,217.503876 158.375519,219.325943 165.951828,217.775696 
	C172.469574,216.442017 176.486313,215.099548 179.474594,208.898621 
	C181.890900,203.884598 186.285202,199.823792 189.616837,195.576324 
	C188.385239,193.902283 186.090729,192.194046 186.227310,190.709473 
	C186.669098,185.907379 187.571091,181.038467 189.138306,176.485306 
	C190.293243,173.129929 190.118668,165.484314 187.071823,164.584290 
	C181.278198,162.872833 183.199860,159.011398 183.345581,155.424011 
	C183.397736,154.140106 183.396912,152.850723 183.348373,151.566574 
	C182.997574,142.285782 182.416779,133.007629 182.330154,123.724724 
	C182.257401,115.929314 182.909225,108.127579 182.858612,100.331116 
	C182.849197,98.880692 181.028122,97.442017 179.939606,95.547302 
	C179.912933,91.398003 179.989822,87.699326 180.402008,83.930725 
	C182.583527,82.220329 182.647461,80.884560 179.980423,79.544556 
	C179.428131,73.057098 178.972534,67.024246 178.904205,61.030594 
	C184.130234,64.406250 182.648911,69.968636 183.918747,74.535271 
	C184.555908,76.826622 184.973953,78.533669 187.755768,77.093437 
	C192.060974,74.864510 193.115356,77.022049 193.008041,80.882805 
	C192.918564,84.102531 194.445419,85.810196 197.720367,86.079140 
	C198.486206,86.142029 199.196884,86.876717 200.524185,87.644188 
	C197.530060,88.929703 195.211411,89.925201 192.892746,90.920708 
	C192.988907,91.662209 193.085052,92.403709 193.181198,93.145210 
	C195.679703,93.145210 198.254623,93.527351 200.657059,93.046928 
	C203.556686,92.467079 206.267441,90.978973 209.156082,90.282959 
	C209.895187,90.104889 210.996582,91.430328 211.931519,92.064987 
	C211.280624,93.021721 210.806152,94.544395 209.941086,94.814049 
	C208.284653,95.330383 206.406174,95.134483 204.009109,95.268211 
	C204.009109,99.378731 204.078857,103.156944 203.986649,106.931198 
	C203.915176,109.856339 205.603027,110.321266 207.867676,109.816666 
	C209.052032,109.552765 210.136978,108.842712 211.288239,108.324516 
	C210.491776,113.233383 209.630112,117.810257 209.030350,122.421204 
	C208.231384,128.563599 213.254852,128.267288 216.885605,128.843262 
	C220.328369,129.389404 223.352921,128.640732 224.281982,124.155159 
	C224.740448,121.941704 226.712708,120.041786 228.000000,118.000000 
z"/>
<path fill="#01021D" opacity="1.000000" stroke="none" 
	d="
M1.000000,93.000000 
	C1.000000,62.388184 1.000000,31.776369 1.000000,1.000000 
	C51.687443,1.000000 102.375061,1.000000 153.475281,1.411041 
	C153.576340,5.262435 153.670013,8.810616 152.794510,12.100902 
	C152.304184,13.943573 150.436722,15.740492 148.717941,16.771111 
	C148.068604,17.160461 145.684891,15.633479 144.810959,14.449285 
	C143.409164,12.549808 144.419922,8.707896 140.344742,9.032287 
	C137.574219,9.252825 134.728622,9.347726 132.095474,10.113740 
	C130.875885,10.468532 130.082855,12.289708 129.096436,13.446086 
	C130.307693,14.335155 131.398270,15.585594 132.755112,16.038698 
	C135.656143,17.007467 138.694962,17.563614 141.677338,18.288776 
	C141.616196,18.902521 141.555054,19.516268 141.493896,20.130013 
	C139.150787,20.420666 136.769073,20.540653 134.477493,21.059080 
	C132.816574,21.434834 130.029266,22.134733 129.881134,23.039824 
	C128.865036,29.248346 124.291672,27.695284 120.376640,28.081224 
	C118.209114,28.294897 116.122879,29.333282 113.666672,29.999954 
	C112.888893,30.000042 112.444443,30.000097 111.631607,29.994560 
	C109.354866,28.354345 107.237106,26.907248 105.575546,25.051651 
	C99.390236,18.144024 98.039413,16.141827 90.545616,24.025194 
	C88.507141,26.169630 86.838219,28.665346 84.666466,30.999849 
	C83.888924,30.999851 83.444618,30.999849 82.938560,30.651245 
	C80.886528,25.056047 75.814323,26.281462 71.914024,25.206602 
	C66.011902,23.580067 63.786060,24.888252 60.670219,31.145439 
	C55.882313,33.022854 51.525658,35.127254 46.936455,36.379230 
	C42.568775,37.570770 41.406708,40.454445 41.050854,44.550823 
	C40.706894,44.984257 40.426346,45.167622 39.978096,45.073383 
	C36.179619,44.421806 35.753445,46.168102 36.981789,49.307762 
	C36.468014,49.776123 35.982719,49.964657 35.108391,50.121490 
	C33.146084,51.393028 31.572815,52.696262 29.658382,54.058342 
	C28.878298,55.078194 28.439379,56.039200 28.000265,57.416847 
	C27.999792,59.222233 27.999514,60.610989 27.606918,62.098328 
	C26.809734,64.024414 26.276186,65.834221 26.022215,67.682449 
	C24.906271,75.803467 23.905300,83.940399 22.758921,92.056915 
	C22.630579,92.965599 22.042400,94.276505 21.330927,94.561890 
	C15.537716,96.885704 15.949111,101.745712 15.893797,106.638672 
	C15.877901,108.044777 14.592567,109.436546 13.889269,110.834885 
	C13.259953,109.529869 12.158040,108.253136 12.077972,106.915253 
	C11.556072,98.194519 9.885509,95.984695 1.000000,93.000000 
z"/>
<path fill="#01021A" opacity="1.000000" stroke="none" 
	d="
M83.000305,30.999847 
	C83.444618,30.999849 83.888924,30.999851 85.089035,30.999760 
	C93.849930,28.702967 101.754204,29.318890 109.656960,31.625746 
	C110.230896,31.793282 111.209526,30.574425 112.000000,30.000153 
	C112.444443,30.000097 112.888893,30.000042 114.135056,29.999987 
	C125.792534,30.333239 136.697327,31.463963 147.491821,30.800339 
	C161.365463,29.947418 168.409622,40.086491 177.411453,47.278034 
	C177.826935,47.609951 177.757904,48.514160 177.979645,49.128319 
	C179.411026,53.092995 180.860535,57.051136 182.623856,61.888641 
	C185.630936,58.166893 185.584641,56.160767 183.041122,53.872707 
	C181.944061,52.885845 181.805847,50.833107 181.232056,49.264572 
	C182.703781,48.967838 184.356995,48.090107 185.613464,48.482548 
	C189.491547,49.693817 192.300156,48.353336 195.150742,45.661026 
	C191.994705,41.092110 193.266541,36.890617 195.707901,32.726723 
	C196.163132,31.950283 196.586365,30.896873 196.443954,30.071417 
	C195.693405,25.720934 197.936981,25.607077 201.094788,26.575413 
	C206.165298,28.130272 211.214859,29.761066 216.320572,31.190891 
	C220.116699,32.253975 223.027664,30.214489 222.928558,26.391977 
	C222.843658,23.117847 222.145340,19.860855 221.743423,16.593191 
	C221.544449,14.975479 221.313965,13.354161 221.252060,11.728599 
	C221.115982,8.154381 221.078018,4.576428 221.000000,1.000000 
	C223.322174,1.000000 225.644363,1.000000 228.000000,1.000000 
	C228.000000,29.020885 228.000000,57.041786 227.607727,85.531433 
	C225.931915,86.172157 224.648361,86.344139 223.080841,86.554176 
	C224.991226,89.834152 226.495605,92.417076 228.000000,95.000000 
	C228.000000,98.030594 228.000000,101.061188 227.640900,104.591446 
	C222.678879,108.942108 222.926254,112.355202 228.000000,115.000000 
	C228.000000,115.750000 228.000000,116.500000 228.000000,117.625000 
	C226.712708,120.041786 224.740448,121.941704 224.281982,124.155159 
	C223.352921,128.640732 220.328369,129.389404 216.885605,128.843262 
	C213.254852,128.267288 208.231384,128.563599 209.030350,122.421204 
	C209.630112,117.810257 210.491776,113.233383 211.288239,108.324516 
	C210.136978,108.842712 209.052032,109.552765 207.867676,109.816666 
	C205.603027,110.321266 203.915176,109.856339 203.986649,106.931198 
	C204.078857,103.156944 204.009109,99.378731 204.009109,95.268211 
	C206.406174,95.134483 208.284653,95.330383 209.941086,94.814049 
	C210.806152,94.544395 211.280624,93.021721 211.931519,92.064987 
	C210.996582,91.430328 209.895187,90.104889 209.156082,90.282959 
	C206.267441,90.978973 203.556686,92.467079 200.657059,93.046928 
	C198.254623,93.527351 195.679703,93.145210 193.181198,93.145210 
	C193.085052,92.403709 192.988907,91.662209 192.892746,90.920708 
	C195.211411,89.925201 197.530060,88.929703 200.524185,87.644188 
	C199.196884,86.876717 198.486206,86.142029 197.720367,86.079140 
	C194.445419,85.810196 192.918564,84.102531 193.008041,80.882805 
	C193.115356,77.022049 192.060974,74.864510 187.755768,77.093437 
	C184.973953,78.533669 184.555908,76.826622 183.918747,74.535271 
	C182.648911,69.968636 184.130234,64.406250 178.708435,60.756622 
	C172.330551,43.753010 158.828949,34.383411 140.457382,34.372787 
	C118.149551,34.359882 95.838020,34.636738 73.535347,34.303379 
	C61.488701,34.123322 50.488804,36.311199 41.114265,44.300758 
	C41.406708,40.454445 42.568775,37.570770 46.936455,36.379230 
	C51.525658,35.127254 55.882313,33.022854 61.138813,31.145470 
	C68.958130,30.999939 75.979218,30.999893 83.000305,30.999847 
M206.457825,83.715355 
	C206.718109,83.988647 206.978394,84.261932 207.238693,84.535233 
	C207.351868,84.427422 207.465042,84.319603 207.578201,84.211777 
	C207.317596,83.938438 207.056976,83.665100 206.457825,83.715355 
z"/>
<path fill="#00021C" opacity="1.000000" stroke="none" 
	d="
M220.555847,1.000000 
	C221.078018,4.576428 221.115982,8.154381 221.252060,11.728599 
	C221.313965,13.354161 221.544449,14.975479 221.743423,16.593191 
	C222.145340,19.860855 222.843658,23.117847 222.928558,26.391977 
	C223.027664,30.214489 220.116699,32.253975 216.320572,31.190891 
	C211.214859,29.761066 206.165298,28.130272 201.094788,26.575413 
	C197.936981,25.607077 195.693405,25.720934 196.443954,30.071417 
	C196.586365,30.896873 196.163132,31.950283 195.707901,32.726723 
	C193.266541,36.890617 191.994705,41.092110 195.150742,45.661026 
	C192.300156,48.353336 189.491547,49.693817 185.613464,48.482548 
	C184.356995,48.090107 182.703781,48.967838 181.232056,49.264572 
	C181.805847,50.833107 181.944061,52.885845 183.041122,53.872707 
	C185.584641,56.160767 185.630936,58.166893 182.623856,61.888641 
	C180.860535,57.051136 179.411026,53.092995 177.979645,49.128319 
	C177.757904,48.514160 177.826935,47.609951 177.411453,47.278034 
	C168.409622,40.086491 161.365463,29.947418 147.491821,30.800339 
	C136.697327,31.463963 125.792534,30.333239 114.468384,29.999954 
	C116.122879,29.333282 118.209114,28.294897 120.376640,28.081224 
	C124.291672,27.695284 128.865036,29.248346 129.881134,23.039824 
	C130.029266,22.134733 132.816574,21.434834 134.477493,21.059080 
	C136.769073,20.540653 139.150787,20.420666 141.493896,20.130013 
	C141.555054,19.516268 141.616196,18.902521 141.677338,18.288776 
	C138.694962,17.563614 135.656143,17.007467 132.755112,16.038698 
	C131.398270,15.585594 130.307693,14.335155 129.096436,13.446086 
	C130.082855,12.289708 130.875885,10.468532 132.095474,10.113740 
	C134.728622,9.347726 137.574219,9.252825 140.344742,9.032287 
	C144.419922,8.707896 143.409164,12.549808 144.810959,14.449285 
	C145.684891,15.633479 148.068604,17.160461 148.717941,16.771111 
	C150.436722,15.740492 152.304184,13.943573 152.794510,12.100902 
	C153.670013,8.810616 153.576340,5.262435 153.943939,1.411041 
	C172.687561,1.000000 191.375122,1.000000 210.531464,1.393276 
	C211.179474,3.025104 211.358688,4.263656 211.537903,5.502208 
	C211.935043,5.453456 212.332184,5.404705 212.729324,5.355953 
	C212.819550,3.903969 212.909775,2.451985 213.000000,1.000000 
	C215.370560,1.000000 217.741104,1.000000 220.555847,1.000000 
M210.759445,20.964540 
	C208.489914,19.679790 207.181473,20.505569 207.208725,22.939425 
	C207.216324,23.619499 208.561844,24.805727 209.355484,24.860312 
	C211.965744,25.039850 212.508835,23.617607 210.759445,20.964540 
M174.122101,40.396400 
	C175.361649,39.714722 176.601196,39.033043 177.840729,38.351357 
	C177.111481,37.620808 176.382233,36.890263 175.652969,36.159721 
	C174.969238,37.398106 174.285492,38.636490 174.122101,40.396400 
M201.715363,18.542152 
	C201.988647,18.281881 202.261932,18.021610 202.535202,17.761341 
	C202.427399,17.648172 202.319580,17.535002 202.211777,17.421824 
	C201.938431,17.682415 201.665100,17.943007 201.715363,18.542152 
z"/>
<path fill="#010219" opacity="1.000000" stroke="none" 
	d="
M1.000000,93.468658 
	C9.885509,95.984695 11.556072,98.194519 12.077972,106.915253 
	C12.158040,108.253136 13.259953,109.529869 13.889269,110.834885 
	C14.592567,109.436546 15.877901,108.044777 15.893797,106.638672 
	C15.949111,101.745712 15.537716,96.885704 21.330927,94.561890 
	C22.042400,94.276505 22.630579,92.965599 22.758921,92.056915 
	C23.905300,83.940399 24.906271,75.803467 26.022215,67.682449 
	C26.276186,65.834221 26.809734,64.024414 27.862139,62.271702 
	C28.722488,62.694504 28.935299,63.042522 29.243853,63.750019 
	C29.239370,66.702850 29.139149,69.296204 29.112064,72.108826 
	C29.326086,72.614372 29.536385,72.834282 29.899843,73.442749 
	C29.928167,77.598053 29.872747,81.298416 29.428614,85.019623 
	C28.479229,85.331024 27.446026,85.593643 27.426954,85.916222 
	C26.941160,94.131973 22.755774,102.209373 26.561909,110.625244 
	C27.102562,111.820694 26.502348,113.507156 26.527922,114.964645 
	C26.668507,122.976723 26.839512,130.988266 27.000057,139.416656 
	C26.999897,141.222214 26.999758,142.611115 26.999619,144.000000 
	C19.581909,147.086807 18.366350,149.357697 20.303431,158.157196 
	C21.022285,161.422729 20.887932,163.912613 19.036270,166.980179 
	C17.779829,169.061676 18.796335,172.515198 17.677029,176.194016 
	C13.855412,172.259369 10.112612,168.242859 6.163591,164.440536 
	C4.996613,163.316910 3.247620,162.797760 1.382671,162.000793 
	C1.000000,160.611115 1.000000,159.222214 1.381601,157.416077 
	C5.374894,154.185135 8.999777,151.386902 12.477523,148.416412 
	C12.531786,148.370056 10.914639,145.367905 9.835173,145.186417 
	C6.960915,144.703171 3.954105,145.008316 1.000000,145.000000 
	C1.000000,127.979103 1.000000,110.958214 1.000000,93.468658 
z"/>
<path fill="#010217" opacity="1.000000" stroke="none" 
	d="
M1.000000,145.460632 
	C3.954105,145.008316 6.960915,144.703171 9.835173,145.186417 
	C10.914639,145.367905 12.531786,148.370056 12.477523,148.416412 
	C8.999777,151.386902 5.374894,154.185135 1.381601,156.999405 
	C1.000000,153.307098 1.000000,149.614182 1.000000,145.460632 
z"/>
<path fill="#010116" opacity="1.000000" stroke="none" 
	d="
M228.000000,114.545891 
	C222.926254,112.355202 222.678879,108.942108 227.640900,105.045563 
	C228.000000,108.030594 228.000000,111.061188 228.000000,114.545891 
z"/>
<path fill="#010116" opacity="1.000000" stroke="none" 
	d="
M228.000000,94.550018 
	C226.495605,92.417076 224.991226,89.834152 223.080841,86.554176 
	C224.648361,86.344139 225.931915,86.172157 227.607727,86.000092 
	C228.000000,88.700012 228.000000,91.400032 228.000000,94.550018 
z"/>
<path fill="#01021A" opacity="1.000000" stroke="none" 
	d="
M212.666672,1.000000 
	C212.909775,2.451985 212.819550,3.903969 212.729324,5.355953 
	C212.332184,5.404705 211.935043,5.453456 211.537903,5.502208 
	C211.358688,4.263656 211.179474,3.025104 211.000122,1.393276 
	C211.444443,1.000000 211.888901,1.000000 212.666672,1.000000 
z"/>
<path fill="#FAFBFB" opacity="1.000000" stroke="none" 
	d="
M29.817327,84.998787 
	C29.872747,81.298416 29.928167,77.598053 29.950476,73.177803 
	C29.624552,72.268471 29.331738,72.079010 29.038925,71.889557 
	C29.139149,69.296204 29.239370,66.702850 29.578070,63.539635 
	C31.710173,58.697582 33.603802,54.425385 35.497429,50.153191 
	C35.982719,49.964657 36.468014,49.776123 37.249329,49.155457 
	C38.412167,47.599213 39.278980,46.475101 40.145794,45.350986 
	C40.426346,45.167622 40.706894,44.984257 41.050854,44.550823 
	C50.488804,36.311199 61.488701,34.123322 73.535347,34.303379 
	C95.838020,34.636738 118.149551,34.359882 140.457382,34.372787 
	C158.828949,34.383411 172.330551,43.753010 178.321167,60.717415 
	C178.972534,67.024246 179.428131,73.057098 179.877319,79.936768 
	C179.936188,81.855934 180.001450,82.928284 180.066711,84.000641 
	C179.989822,87.699326 179.912933,91.398003 179.829132,96.004868 
	C179.544571,118.334549 179.502625,139.762558 178.911423,161.175415 
	C178.472992,177.055084 162.625504,192.957901 144.717514,192.966736 
	C118.081268,192.979874 91.444611,193.044891 64.808937,192.918701 
	C54.469845,192.869705 45.807053,188.218872 38.913635,180.983734 
	C32.549313,174.303925 30.068842,165.668869 30.010588,156.436920 
	C29.925533,142.957428 29.883087,129.477661 29.904819,115.536011 
	C29.930552,105.048950 29.873940,95.023865 29.817327,84.998787 
M145.999023,98.002571 
	C145.999023,98.002571 146.021500,98.055336 146.488159,97.887871 
	C146.822830,97.683037 146.928406,97.394402 147.028519,96.649117 
	C147.028519,96.649117 147.058975,96.215424 147.596237,96.004257 
	C147.800644,95.698776 148.005066,95.393295 148.078445,95.080894 
	C148.078445,95.080894 148.100510,95.210251 148.635864,95.030457 
	C148.803879,94.702606 148.971893,94.374763 149.048248,94.062759 
	C149.048248,94.062759 149.082214,94.149345 149.790131,94.132652 
	C150.497574,94.142464 151.205017,94.152267 151.960663,94.081581 
	C151.960663,94.081581 151.867966,94.096069 152.285339,94.692398 
	C155.524536,96.747223 157.291016,96.031456 157.183228,92.021149 
	C157.085114,88.371605 156.900238,84.724403 156.918762,80.236580 
	C156.624161,72.746262 156.091797,72.426613 149.742813,75.959854 
	C146.712021,77.646500 143.681808,79.334427 140.665924,81.047485 
	C135.253876,84.121590 135.265442,84.273216 140.301270,88.268234 
	C140.743179,88.618805 140.827789,89.419762 140.631363,90.505493 
	C139.412170,92.325661 138.192978,94.145828 136.463638,96.245392 
	C136.193726,96.744781 135.923813,97.244179 135.788025,97.900291 
	C135.788025,97.900291 135.710922,97.708961 135.230667,97.943047 
	C135.079300,98.260132 134.927917,98.577225 134.269974,99.153152 
	C133.846100,99.771240 133.422226,100.389336 132.460724,101.223259 
	C132.012177,101.824318 131.563629,102.425369 130.847504,103.199860 
	C130.847504,103.199860 130.737015,103.499001 130.224075,103.728409 
	C130.030075,104.038567 129.836060,104.348717 129.586288,104.811813 
	C129.586288,104.811813 129.614944,104.648979 129.150696,104.806129 
	C128.856720,104.997932 128.688095,105.267990 128.814072,105.908615 
	C128.814072,105.908615 128.606964,105.641769 128.153778,105.765427 
	C127.857780,105.925415 127.677063,106.170418 127.567757,106.574303 
	C127.567757,106.574303 127.486649,106.602623 127.079132,106.734383 
	C126.817337,106.890282 126.656555,107.117615 126.544380,107.497849 
	C126.544380,107.497849 126.452576,107.528755 125.945633,107.727257 
	C125.605530,108.140900 125.265427,108.554543 124.360573,109.221436 
	C123.193108,110.376480 122.025642,111.531525 120.329941,112.855927 
	C120.112206,113.140175 119.894470,113.424431 119.826485,113.738190 
	C119.826485,113.738190 119.715866,113.633049 119.146523,113.768417 
	C118.729073,114.159966 118.311623,114.551514 117.449440,115.029121 
	C117.152206,115.161354 116.960983,115.384445 116.289619,115.837006 
	C115.848297,116.221245 115.406975,116.605484 114.500488,117.092384 
	C114.187904,117.232407 113.988434,117.468147 113.270752,118.174721 
	C112.900337,123.786575 115.660904,121.604164 118.048935,120.066238 
	C118.048935,120.066238 118.078697,120.170662 118.685013,120.125862 
	C119.166412,119.790466 119.647812,119.455070 120.050011,119.061607 
	C120.050011,119.061607 120.063675,119.158852 120.688385,119.161911 
	C121.173317,118.822586 121.658249,118.483261 122.053497,118.036964 
	C122.053497,118.036964 122.097000,118.169609 122.701035,118.041580 
	C122.992348,117.762970 123.283661,117.484360 123.818794,117.253876 
	C123.818794,117.253876 123.989227,117.072990 124.628555,117.013474 
	C125.467072,116.384956 126.305595,115.756432 127.068626,115.065010 
	C127.068626,115.065010 127.072853,115.163177 127.681305,115.067986 
	C127.965370,114.784271 128.249435,114.500549 128.802704,114.233696 
	C128.802704,114.233696 128.983978,114.033974 129.555862,113.972633 
	C129.794556,113.685951 130.033249,113.399269 130.902008,112.908104 
	C133.973312,109.975655 137.044617,107.043205 140.059830,104.064819 
	C140.059830,104.064819 140.045334,104.135612 140.570770,103.951988 
	C140.772934,103.650047 140.975082,103.348106 141.764771,102.790932 
	C142.512527,102.029396 143.260284,101.267860 144.472198,100.348961 
	C144.707764,99.939735 144.943344,99.530510 145.092606,99.067360 
	C145.092606,99.067360 145.060883,99.164070 145.575317,98.973045 
	C145.735092,98.654221 145.894867,98.335388 145.999023,98.002571 
M146.446564,107.056854 
	C146.279648,107.366631 146.112717,107.676407 146.003876,107.990379 
	C146.003876,107.990379 145.971756,107.941803 145.356308,108.534126 
	C145.310120,122.689812 145.263931,136.845490 145.149353,151.759369 
	C146.557373,156.422073 150.099274,155.031708 153.268097,154.586166 
	C156.712753,154.101837 156.565018,151.606628 156.455566,148.980408 
	C156.234802,143.684006 156.180817,138.380661 156.286377,132.205093 
	C156.214996,129.807098 156.143600,127.409111 156.297134,124.130630 
	C156.226074,121.422897 156.155014,118.715164 156.297913,115.168121 
	C155.945099,112.479195 155.592300,109.790268 154.952881,106.264786 
	C152.279678,106.499725 149.606491,106.734665 146.993332,106.995293 
	C146.993332,106.995293 146.988663,106.930145 146.446564,107.056854 
M140.123718,134.171692 
	C140.070267,132.450989 140.016815,130.730270 140.168961,128.133286 
	C140.171829,126.802490 140.118027,125.468719 140.187866,124.141449 
	C140.424255,119.647537 138.128922,118.335625 134.018616,119.012100 
	C129.421768,119.768646 128.677963,121.204605 128.969254,129.880112 
	C129.020279,131.926208 129.071304,133.972305 128.979950,136.864975 
	C129.030731,138.580048 129.081512,140.295135 128.983597,142.907822 
	C129.038452,145.941330 129.093323,148.974838 129.237320,152.812012 
	C136.364868,156.361130 140.178726,154.322800 140.110840,146.981903 
	C140.098618,145.659622 139.973206,144.338379 140.084534,142.276520 
	C140.030136,141.520401 139.975739,140.764282 140.113098,139.190002 
	C140.051666,137.797623 139.990234,136.405243 140.123718,134.171692 
M124.050110,134.148682 
	C123.346428,132.371170 123.072975,129.471481 121.865326,129.008484 
	C116.347244,126.892921 112.816544,129.932480 112.932777,136.887756 
	C112.985931,139.265335 113.039078,141.642929 112.936668,144.895447 
	C112.981224,147.263687 113.025780,149.631912 113.035439,152.765717 
	C116.032310,153.330948 119.168930,154.624802 121.954895,154.090439 
	C123.017860,153.886566 123.277122,149.492447 124.038666,146.271317 
	C123.747894,145.158417 123.457123,144.045532 123.429268,142.181747 
	C123.580582,139.791580 123.731903,137.401428 124.050110,134.148682 
M72.267113,80.120110 
	C60.234776,82.901184 55.444397,88.841713 55.414284,101.109222 
	C55.386501,112.427490 55.395988,123.745895 55.406109,135.064224 
	C55.417179,147.445267 62.499073,154.584412 74.856667,154.630249 
	C82.513237,154.658646 90.170692,154.663574 97.826691,154.581177 
	C108.457436,154.466812 107.183540,155.973068 107.271652,144.908600 
	C107.306198,140.570999 105.185143,138.953293 101.133270,139.004715 
	C96.140549,139.068069 91.146370,139.011139 86.152832,139.017776 
	C74.445801,139.033356 72.574028,140.775604 74.888290,125.012764 
	C77.258873,124.956711 79.629448,124.900665 82.918419,124.997490 
	C87.278564,124.945076 91.638718,124.892670 96.765854,124.985123 
	C102.374184,124.916405 102.834816,120.890167 103.086914,116.731750 
	C103.490250,110.078476 103.373428,109.955925 96.904938,109.951508 
	C89.276558,109.946304 81.648170,109.952538 73.735275,109.077118 
	C73.683914,107.579826 73.592880,106.082672 73.587860,104.585228 
	C73.561966,96.870964 74.572945,95.842598 82.078545,95.852600 
	C88.408615,95.861038 94.739517,95.803780 101.068436,95.891685 
	C104.232330,95.935616 107.588570,95.783295 108.299095,92.154129 
	C109.069344,88.219887 111.043495,83.819870 106.073006,80.004845 
	C95.058861,80.075157 84.044716,80.145470 72.267113,80.120110 
z"/>
<path fill="#020212" opacity="1.000000" stroke="none" 
	d="
M29.822479,115.998001 
	C29.883087,129.477661 29.925533,142.957428 30.010588,156.436920 
	C30.068842,165.668869 32.549313,174.303925 38.913635,180.983734 
	C45.807053,188.218872 54.469845,192.869705 64.808937,192.918701 
	C91.444611,193.044891 118.081268,192.979874 144.717514,192.966736 
	C162.625504,192.957901 178.472992,177.055084 178.911423,161.175415 
	C179.502625,139.762558 179.544571,118.334549 179.932678,96.455475 
	C181.028122,97.442017 182.849197,98.880692 182.858612,100.331116 
	C182.909225,108.127579 182.257401,115.929314 182.330154,123.724724 
	C182.416779,133.007629 182.997574,142.285782 183.348373,151.566574 
	C183.396912,152.850723 183.397736,154.140106 183.345581,155.424011 
	C183.199860,159.011398 181.278198,162.872833 187.071823,164.584290 
	C190.118668,165.484314 190.293243,173.129929 189.138306,176.485306 
	C187.571091,181.038467 186.669098,185.907379 186.227310,190.709473 
	C186.090729,192.194046 188.385239,193.902283 189.616837,195.576324 
	C186.285202,199.823792 181.890900,203.884598 179.474594,208.898621 
	C176.486313,215.099548 172.469574,216.442017 165.951828,217.775696 
	C158.375519,219.325943 151.509903,217.503876 144.344604,217.633331 
	C138.843399,217.732712 133.346191,218.047607 127.845047,218.158508 
	C124.764061,218.220612 121.678810,218.025162 118.595192,218.011734 
	C112.835419,217.986649 107.072105,218.135498 101.316345,217.982666 
	C93.021805,217.762405 84.717224,217.541550 76.447769,216.914322 
	C72.284256,216.598526 68.198708,215.329559 64.058029,214.605194 
	C62.113503,214.265045 60.111885,213.962204 58.153900,214.047958 
	C54.033672,214.228424 51.007225,213.837173 48.451313,209.400375 
	C46.039539,205.213776 41.574509,202.087296 37.657162,198.936493 
	C35.285931,197.029266 33.736858,195.381638 33.923450,192.046127 
	C34.424587,183.088043 30.950512,174.954025 28.510853,166.540466 
	C27.041771,161.474106 27.634048,155.798935 27.393719,150.393188 
	C27.307505,148.453934 27.496069,146.502457 27.279419,144.278290 
	C26.999758,142.611115 26.999897,141.222214 27.288296,139.115189 
	C27.717752,132.441086 27.744337,126.478691 28.078499,120.533569 
	C28.165041,118.993904 29.215034,117.508392 29.822479,115.998001 
M181.976959,175.246796 
	C186.226318,173.960327 184.742035,171.139694 184.623169,168.684402 
	C183.966003,168.519974 183.308853,168.355560 182.651688,168.191147 
	C182.264847,170.363953 181.878006,172.536758 181.976959,175.246796 
z"/>
<path fill="#020212" opacity="1.000000" stroke="none" 
	d="
M180.402008,83.930725 
	C180.001450,82.928284 179.936188,81.855934 179.974030,80.391365 
	C182.647461,80.884560 182.583527,82.220329 180.402008,83.930725 
z"/>
<path fill="#00021C" opacity="1.000000" stroke="none" 
	d="
M111.631607,29.994560 
	C111.209526,30.574425 110.230896,31.793282 109.656960,31.625746 
	C101.754204,29.318890 93.849930,28.702967 85.422264,30.999756 
	C86.838219,28.665346 88.507141,26.169630 90.545616,24.025194 
	C98.039413,16.141827 99.390236,18.144024 105.575546,25.051651 
	C107.237106,26.907248 109.354866,28.354345 111.631607,29.994560 
z"/>
<path fill="#00021C" opacity="1.000000" stroke="none" 
	d="
M82.938560,30.651245 
	C75.979218,30.999893 68.958130,30.999939 61.468445,30.999954 
	C63.786060,24.888252 66.011902,23.580067 71.914024,25.206602 
	C75.814323,26.281462 80.886528,25.056047 82.938560,30.651245 
z"/>
<path fill="#020217" opacity="1.000000" stroke="none" 
	d="
M35.108391,50.121490 
	C33.603802,54.425385 31.710173,58.697582 29.482328,63.180161 
	C28.935299,63.042522 28.722488,62.694504 28.254456,62.173111 
	C27.999514,60.610989 27.999792,59.222233 28.341446,57.358078 
	C29.121729,55.921612 29.560638,54.960556 29.999546,53.999496 
	C31.572815,52.696262 33.146084,51.393028 35.108391,50.121490 
z"/>
<path fill="#020217" opacity="1.000000" stroke="none" 
	d="
M39.978096,45.073383 
	C39.278980,46.475101 38.412167,47.599213 37.277817,48.875629 
	C35.753445,46.168102 36.179619,44.421806 39.978096,45.073383 
z"/>
<path fill="#010219" opacity="1.000000" stroke="none" 
	d="
M29.658382,54.058342 
	C29.560638,54.960556 29.121729,55.921612 28.341640,56.941441 
	C28.439379,56.039200 28.878298,55.078194 29.658382,54.058342 
z"/>
<path fill="#010116" opacity="1.000000" stroke="none" 
	d="
M206.627106,83.553558 
	C207.056976,83.665100 207.317596,83.938438 207.578217,84.211777 
	C207.465042,84.319603 207.351868,84.427422 207.238678,84.535225 
	C206.978394,84.261932 206.718109,83.988647 206.627106,83.553558 
z"/>
<path fill="#01021A" opacity="1.000000" stroke="none" 
	d="
M211.062164,21.183722 
	C212.508835,23.617607 211.965744,25.039850 209.355484,24.860312 
	C208.561844,24.805727 207.216324,23.619499 207.208725,22.939425 
	C207.181473,20.505569 208.489914,19.679790 211.062164,21.183722 
z"/>
<path fill="#01021A" opacity="1.000000" stroke="none" 
	d="
M173.861938,40.135635 
	C174.285492,38.636490 174.969238,37.398106 175.652969,36.159721 
	C176.382233,36.890263 177.111481,37.620808 177.840729,38.351360 
	C176.601196,39.033043 175.361649,39.714722 173.861938,40.135635 
z"/>
<path fill="#01021A" opacity="1.000000" stroke="none" 
	d="
M201.553558,18.372875 
	C201.665100,17.943007 201.938431,17.682415 202.211761,17.421829 
	C202.319580,17.535002 202.427399,17.648172 202.535217,17.761341 
	C202.261932,18.021610 201.988647,18.281881 201.553558,18.372875 
z"/>
<path fill="#010116" opacity="1.000000" stroke="none" 
	d="
M29.904821,115.536011 
	C29.215034,117.508392 28.165041,118.993904 28.078499,120.533569 
	C27.744337,126.478691 27.717752,132.441086 27.288315,138.698517 
	C26.839512,130.988266 26.668507,122.976723 26.527922,114.964645 
	C26.502348,113.507156 27.102562,111.820694 26.561909,110.625244 
	C22.755774,102.209373 26.941160,94.131973 27.426954,85.916222 
	C27.446026,85.593643 28.479229,85.331024 29.428614,85.019623 
	C29.873940,95.023865 29.930552,105.048950 29.904821,115.536011 
z"/>
<path fill="#020212" opacity="1.000000" stroke="none" 
	d="
M29.112064,72.108826 
	C29.331738,72.079010 29.624552,72.268471 29.866732,72.722870 
	C29.536385,72.834282 29.326086,72.614372 29.112064,72.108826 
z"/>
<path fill="#090C2D" opacity="1.000000" stroke="none" 
	d="
M95.998863,124.840256 
	C91.638718,124.892670 87.278564,124.945076 82.378807,124.567337 
	C77.517899,120.855484 75.381020,121.088783 73.999153,124.993111 
	C72.574028,140.775604 74.445801,139.033356 86.152832,139.017776 
	C91.146370,139.011139 96.140549,139.068069 101.133270,139.004715 
	C105.185143,138.953293 107.306198,140.570999 107.271652,144.908600 
	C107.183540,155.973068 108.457436,154.466812 97.826691,154.581177 
	C90.170692,154.663574 82.513237,154.658646 74.856667,154.630249 
	C62.499073,154.584412 55.417179,147.445267 55.406109,135.064224 
	C55.395988,123.745895 55.386501,112.427490 55.414284,101.109222 
	C55.444397,88.841713 60.234776,82.901184 72.981743,80.408623 
	C84.785385,80.566132 95.874405,80.435135 106.963417,80.304138 
	C111.043495,83.819870 109.069344,88.219887 108.299095,92.154129 
	C107.588570,95.783295 104.232330,95.935616 101.068436,95.891685 
	C94.739517,95.803780 88.408615,95.861038 82.078545,95.852600 
	C74.572945,95.842598 73.561966,96.870964 73.587860,104.585228 
	C73.592880,106.082672 73.683914,107.579826 73.950653,109.894455 
	C75.304916,111.110756 76.454475,111.879105 77.580894,111.846550 
	C83.332291,111.680336 89.088661,111.437706 94.820992,110.956245 
	C98.099876,110.680862 100.340370,112.366127 100.600098,115.025002 
	C100.812874,117.203148 99.215820,119.615326 98.215004,121.830673 
	C97.713394,122.940987 96.752197,123.843666 95.998863,124.840256 
z"/>
<path fill="#1CD596" opacity="1.000000" stroke="none" 
	d="
M141.078339,90.011528 
	C140.827789,89.419762 140.743179,88.618805 140.301270,88.268234 
	C135.265442,84.273216 135.253876,84.121590 140.665924,81.047485 
	C143.681808,79.334427 146.712021,77.646500 149.742813,75.959854 
	C156.091797,72.426613 156.624161,72.746262 156.602020,80.982941 
	C156.189606,84.380760 155.880508,87.046188 156.053024,89.680069 
	C156.261734,92.866493 155.181000,94.437729 151.867966,94.096069 
	C151.867966,94.096069 151.960663,94.081581 151.918060,93.772385 
	C150.368408,91.347214 149.486984,91.778084 149.082214,94.149345 
	C149.082214,94.149345 149.048248,94.062759 148.841034,94.166916 
	C148.456039,94.584137 148.278275,94.897194 148.100510,95.210251 
	C148.100510,95.210251 148.078445,95.080894 147.873688,95.181030 
	C147.465622,95.592583 147.262299,95.903999 147.058975,96.215424 
	C147.058975,96.215424 147.028519,96.649117 146.736557,96.966171 
	C146.230789,97.500717 146.089752,97.758095 146.021500,98.055336 
	C146.021500,98.055336 145.999023,98.002571 145.792053,98.132339 
	C145.410370,98.562759 145.235626,98.863419 145.060883,99.164070 
	C145.060883,99.164070 145.092606,99.067360 144.839020,99.049828 
	C144.386383,99.018219 144.187347,99.004150 143.681732,98.826797 
	C142.609543,95.779510 141.843948,92.895523 141.078339,90.011528 
z"/>
<path fill="#1AC18B" opacity="1.000000" stroke="none" 
	d="
M113.902077,117.799599 
	C113.988434,117.468147 114.187904,117.232407 115.053322,117.021942 
	C116.029366,116.533798 116.452568,116.116104 116.875778,115.698410 
	C116.960983,115.384445 117.152206,115.161354 117.995819,114.981140 
	C118.933411,114.499779 119.324638,114.066414 119.715866,113.633049 
	C119.715866,113.633049 119.826485,113.738190 120.043304,113.686874 
	C120.459473,113.319229 120.658829,113.002907 120.858185,112.686569 
	C122.025642,111.531525 123.193108,110.376480 124.963989,109.076340 
	C125.862457,108.463753 126.157516,107.996254 126.452576,107.528755 
	C126.452576,107.528755 126.544380,107.497849 126.845108,107.516510 
	C127.259438,107.224319 127.373047,106.913475 127.486649,106.602623 
	C127.486649,106.602623 127.567757,106.574303 127.869659,106.572449 
	C128.316696,106.260979 128.461823,105.951378 128.606964,105.641769 
	C128.606964,105.641769 128.814072,105.908615 129.011353,105.756393 
	C129.344086,105.285774 129.479523,104.967377 129.614960,104.648979 
	C129.614944,104.648979 129.586288,104.811813 129.921082,104.690216 
	C130.416245,104.212074 130.576630,103.855537 130.737015,103.499001 
	C130.737015,103.499001 130.847504,103.199860 131.290497,103.115540 
	C132.144440,102.995163 132.555389,102.959114 133.180786,103.194740 
	C135.635468,103.681198 137.875687,103.895973 140.115921,104.110748 
	C137.044617,107.043205 133.973312,109.975655 130.311935,113.064728 
	C129.475891,113.492233 129.229935,113.763100 128.983978,114.033966 
	C128.983978,114.033974 128.802704,114.233696 128.353867,114.254295 
	C127.627647,114.570992 127.350250,114.867088 127.072861,115.163177 
	C127.072853,115.163177 127.068626,115.065010 126.768219,115.071602 
	C125.641617,115.743126 124.815422,116.408058 123.989227,117.072990 
	C123.989227,117.072990 123.818794,117.253876 123.375610,117.257095 
	C122.653946,117.563408 122.375473,117.866508 122.097000,118.169609 
	C122.097000,118.169609 122.053497,118.036964 121.778671,118.066803 
	C121.023788,118.450722 120.543739,118.804794 120.063675,119.158859 
	C120.063675,119.158852 120.050011,119.061607 119.768982,119.063919 
	C119.018196,119.434380 118.548447,119.802521 118.078697,120.170662 
	C118.078697,120.170662 118.048935,120.066238 117.695023,120.049728 
	C116.194763,119.288681 115.048416,118.544144 113.902077,117.799599 
z"/>
<path fill="#3453E0" opacity="1.000000" stroke="none" 
	d="
M155.239502,107.101349 
	C155.592300,109.790268 155.945099,112.479195 155.812912,115.652039 
	C152.221039,116.759972 149.114166,117.383995 146.000000,117.551895 
	C145.985733,114.044456 145.978745,110.993134 145.971756,107.941803 
	C145.971756,107.941803 146.003876,107.990379 146.215118,107.886948 
	C146.613785,107.499062 146.801224,107.214600 146.988663,106.930145 
	C146.988663,106.930145 146.993332,106.995293 147.420654,107.002388 
	C150.311829,107.040100 152.775650,107.070724 155.239502,107.101349 
z"/>
<path fill="#354CD7" opacity="1.000000" stroke="none" 
	d="
M129.114777,129.013794 
	C128.677963,121.204605 129.421768,119.768646 134.018616,119.012100 
	C138.128922,118.335625 140.424255,119.647537 140.187866,124.141449 
	C140.118027,125.468719 140.171829,126.802490 139.653030,128.568024 
	C135.796326,129.006439 132.455551,129.010117 129.114777,129.013794 
z"/>
<path fill="#262AB4" opacity="1.000000" stroke="none" 
	d="
M113.070343,152.000153 
	C113.025780,149.631912 112.981224,147.263687 113.390160,144.442474 
	C116.951218,143.637207 120.058784,143.284912 123.166351,142.932617 
	C123.457123,144.045532 123.747894,145.158417 123.613647,146.726242 
	C120.528236,152.693527 120.528259,152.693298 113.555382,152.013580 
	C113.394791,151.997925 113.232071,152.004135 113.070343,152.000153 
z"/>
<path fill="#2C3AC9" opacity="1.000000" stroke="none" 
	d="
M156.072205,125.011124 
	C156.143600,127.409111 156.214996,129.807098 155.910812,132.777344 
	C155.350143,133.896408 155.165024,134.443207 154.533981,134.993774 
	C151.397552,134.997086 148.707047,134.996613 146.010559,134.546478 
	C146.011078,131.398636 146.017624,128.700485 146.460388,126.001907 
	C149.955154,125.671379 153.013687,125.341255 156.072205,125.011124 
z"/>
<path fill="#272AB4" opacity="1.000000" stroke="none" 
	d="
M129.148178,152.008347 
	C129.093323,148.974838 129.038452,145.941330 129.445007,142.396561 
	C133.244720,141.259583 136.583023,140.633865 139.921326,140.008163 
	C139.975739,140.764282 140.030136,141.520401 139.627991,142.735748 
	C138.556824,144.928787 137.942184,146.662582 137.463959,148.011581 
	C134.509293,149.431671 131.828735,150.720016 129.148178,152.008347 
z"/>
<path fill="#2A38C5" opacity="1.000000" stroke="none" 
	d="
M123.297806,142.557190 
	C120.058784,143.284912 116.951218,143.637207 113.467941,144.005005 
	C113.039078,141.642929 112.985931,139.265335 113.385605,136.444763 
	C117.186699,135.671600 120.534958,135.341431 123.883224,135.011261 
	C123.731903,137.401428 123.580582,139.791580 123.297806,142.557190 
z"/>
<path fill="#2F46D4" opacity="1.000000" stroke="none" 
	d="
M156.184677,124.570877 
	C153.013687,125.341255 149.955154,125.671379 146.450180,125.557755 
	C146.004913,122.745338 146.006104,120.376671 146.007294,118.008011 
	C149.114166,117.383995 152.221039,116.759972 155.705933,116.071686 
	C156.155014,118.715164 156.226074,121.422897 156.184677,124.570877 
z"/>
<path fill="#1EC990" opacity="1.000000" stroke="none" 
	d="
M140.087875,104.087784 
	C137.875687,103.895973 135.635468,103.681198 133.193222,102.876640 
	C132.993591,101.860390 132.995987,101.433907 132.998367,101.007431 
	C133.422226,100.389336 133.846100,99.771240 134.789307,98.931671 
	C135.442734,98.376442 135.576828,98.042702 135.710922,97.708961 
	C135.710922,97.708961 135.788025,97.900291 136.032410,97.760315 
	C136.509125,97.068893 136.741455,96.517441 136.973770,95.965988 
	C138.192978,94.145828 139.412170,92.325661 140.854858,90.258514 
	C141.843948,92.895523 142.609543,95.779510 143.687622,99.079758 
	C144.002731,99.832779 144.005386,100.169556 144.008041,100.506317 
	C143.260284,101.267860 142.512527,102.029396 141.217468,103.023621 
	C140.461899,103.549408 140.253616,103.842514 140.045334,104.135612 
	C140.045334,104.135612 140.059830,104.064819 140.087875,104.087784 
z"/>
<path fill="#2D3DCD" opacity="1.000000" stroke="none" 
	d="
M129.042023,129.446960 
	C132.455551,129.010117 135.796326,129.006439 139.550232,129.006165 
	C140.016815,130.730270 140.070267,132.450989 139.647858,134.639496 
	C135.822098,135.410995 132.472214,135.714706 129.122314,136.018402 
	C129.071304,133.972305 129.020279,131.926208 129.042023,129.446960 
z"/>
<path fill="#090B20" opacity="1.000000" stroke="none" 
	d="
M96.382355,124.912689 
	C96.752197,123.843666 97.713394,122.940987 98.215004,121.830673 
	C99.215820,119.615326 100.812874,117.203148 100.600098,115.025002 
	C100.340370,112.366127 98.099876,110.680862 94.820992,110.956245 
	C89.088661,111.437706 83.332291,111.680336 77.580894,111.846550 
	C76.454475,111.879105 75.304916,111.110756 74.092911,110.332809 
	C81.648170,109.952538 89.276558,109.946304 96.904938,109.951508 
	C103.373428,109.955925 103.490250,110.078476 103.086914,116.731750 
	C102.834816,120.890167 102.374184,124.916405 96.382355,124.912689 
z"/>
<path fill="#3244CA" opacity="1.000000" stroke="none" 
	d="
M123.966667,134.579956 
	C120.534958,135.341431 117.186699,135.671600 113.464462,136.005981 
	C112.816544,129.932480 116.347244,126.892921 121.865326,129.008484 
	C123.072975,129.471481 123.346428,132.371170 123.966667,134.579956 
z"/>
<path fill="#262598" opacity="1.000000" stroke="none" 
	d="
M154.979919,134.990005 
	C155.165024,134.443207 155.350143,133.896408 155.796631,133.214890 
	C156.180817,138.380661 156.234802,143.684006 156.455566,148.980408 
	C156.565018,151.606628 156.712753,154.101837 153.268097,154.586166 
	C150.099274,155.031708 146.557373,156.422073 145.365036,151.248795 
	C145.773453,150.503540 145.913864,150.240891 146.420319,149.967850 
	C149.280273,150.461655 151.721893,150.937851 154.975876,151.572510 
	C154.975876,149.037186 154.975876,146.510895 154.983536,143.536865 
	C154.987442,140.389404 154.983673,137.689713 154.979919,134.990005 
z"/>
<path fill="#2A31BD" opacity="1.000000" stroke="none" 
	d="
M129.051132,136.441681 
	C132.472214,135.714706 135.822098,135.410995 139.550400,135.060089 
	C139.990234,136.405243 140.051666,137.797623 140.017212,139.599091 
	C136.583023,140.633865 133.244720,141.259583 129.519348,141.947754 
	C129.081512,140.295135 129.030731,138.580048 129.051132,136.441681 
z"/>
<path fill="#2626A6" opacity="1.000000" stroke="none" 
	d="
M129.192749,152.410187 
	C131.828735,150.720016 134.509293,149.431671 137.463959,148.011581 
	C137.942184,146.662582 138.556824,144.928787 139.535767,143.105820 
	C139.973206,144.338379 140.098618,145.659622 140.110840,146.981903 
	C140.178726,154.322800 136.364868,156.361130 129.192749,152.410187 
z"/>
<path fill="#4854B6" opacity="1.000000" stroke="none" 
	d="
M146.001984,149.950256 
	C145.913864,150.240891 145.773453,150.503540 145.399231,150.869690 
	C145.263931,136.845490 145.310120,122.689812 145.664032,108.237961 
	C145.978745,110.993134 145.985733,114.044456 146.000000,117.551895 
	C146.006104,120.376671 146.004913,122.745338 146.013947,125.558167 
	C146.017624,128.700485 146.011078,131.398636 146.002686,134.995865 
	C146.006577,138.592545 146.012314,141.290176 146.006470,144.415192 
	C145.997253,146.545151 145.999619,148.247711 146.001984,149.950256 
z"/>
<path fill="#3C3CA9" opacity="1.000000" stroke="none" 
	d="
M113.052887,152.382935 
	C113.232071,152.004135 113.394791,151.997925 113.555382,152.013580 
	C120.528259,152.693298 120.528236,152.693527 123.545639,147.094574 
	C123.277122,149.492447 123.017860,153.886566 121.954895,154.090439 
	C119.168930,154.624802 116.032310,153.330948 113.052887,152.382935 
z"/>
<path fill="#080716" opacity="1.000000" stroke="none" 
	d="
M106.518211,80.154495 
	C95.874405,80.435135 84.785385,80.566132 73.363472,80.456459 
	C84.044716,80.145470 95.058861,80.075157 106.518211,80.154495 
z"/>
<path fill="#090B20" opacity="1.000000" stroke="none" 
	d="
M74.443726,125.002937 
	C75.381020,121.088783 77.517899,120.855484 81.919617,124.490898 
	C79.629448,124.900665 77.258873,124.956711 74.443726,125.002937 
z"/>
<path fill="#1EC990" opacity="1.000000" stroke="none" 
	d="
M152.076660,94.394234 
	C155.181000,94.437729 156.261734,92.866493 156.053024,89.680069 
	C155.880508,87.046188 156.189606,84.380760 156.519455,81.402740 
	C156.900238,84.724403 157.085114,88.371605 157.183228,92.021149 
	C157.291016,96.031456 155.524536,96.747223 152.076660,94.394234 
z"/>
<path fill="#3CB58F" opacity="1.000000" stroke="none" 
	d="
M113.586411,117.987160 
	C115.048416,118.544144 116.194763,119.288681 117.739120,120.081390 
	C115.660904,121.604164 112.900337,123.786575 113.586411,117.987160 
z"/>
<path fill="#4854B6" opacity="1.000000" stroke="none" 
	d="
M155.096191,106.683067 
	C152.775650,107.070724 150.311829,107.040100 147.390640,106.989540 
	C149.606491,106.734665 152.279678,106.499725 155.096191,106.683067 
z"/>
<path fill="#1EC990" opacity="1.000000" stroke="none" 
	d="
M149.436172,94.140999 
	C149.486984,91.778084 150.368408,91.347214 151.893951,93.812637 
	C151.205017,94.152267 150.497574,94.142464 149.436172,94.140999 
z"/>
<path fill="#3CB58F" opacity="1.000000" stroke="none" 
	d="
M124.308891,117.043228 
	C124.815422,116.408058 125.641617,115.743126 126.805962,115.103058 
	C126.305595,115.756432 125.467072,116.384956 124.308891,117.043228 
z"/>
<path fill="#46BF97" opacity="1.000000" stroke="none" 
	d="
M132.729553,101.115341 
	C132.995987,101.433907 132.993591,101.860390 132.978760,102.604965 
	C132.555389,102.959114 132.144440,102.995163 131.424301,103.028824 
	C131.563629,102.425369 132.012177,101.824318 132.729553,101.115341 
z"/>
<path fill="#3CB58F" opacity="1.000000" stroke="none" 
	d="
M119.431198,113.700729 
	C119.324638,114.066414 118.933411,114.499779 118.218185,114.938110 
	C118.311623,114.551514 118.729073,114.159966 119.431198,113.700729 
z"/>
<path fill="#3CB58F" opacity="1.000000" stroke="none" 
	d="
M116.582695,115.767700 
	C116.452568,116.116104 116.029366,116.533798 115.285904,116.970604 
	C115.406975,116.605484 115.848297,116.221245 116.582695,115.767700 
z"/>
<path fill="#3CB58F" opacity="1.000000" stroke="none" 
	d="
M120.376038,119.160385 
	C120.543739,118.804794 121.023788,118.450722 121.823509,118.120293 
	C121.658249,118.483261 121.173317,118.822586 120.376038,119.160385 
z"/>
<path fill="#46BF97" opacity="1.000000" stroke="none" 
	d="
M136.718704,96.105690 
	C136.741455,96.517441 136.509125,97.068893 135.965347,97.681953 
	C135.923813,97.244179 136.193726,96.744781 136.718704,96.105690 
z"/>
<path fill="#3CB58F" opacity="1.000000" stroke="none" 
	d="
M118.381851,120.148262 
	C118.548447,119.802521 119.018196,119.434380 119.808578,119.092957 
	C119.647812,119.455070 119.166412,119.790466 118.381851,120.148262 
z"/>
<path fill="#1AC18B" opacity="1.000000" stroke="none" 
	d="
M144.240112,100.427643 
	C144.005386,100.169556 144.002731,99.832779 143.994202,99.243042 
	C144.187347,99.004150 144.386383,99.018219 144.882172,99.076782 
	C144.943344,99.530510 144.707764,99.939735 144.240112,100.427643 
z"/>
<path fill="#46BF97" opacity="1.000000" stroke="none" 
	d="
M126.199104,107.628006 
	C126.157516,107.996254 125.862457,108.463753 125.246361,108.949715 
	C125.265427,108.554543 125.605530,108.140900 126.199104,107.628006 
z"/>
<path fill="#46BF97" opacity="1.000000" stroke="none" 
	d="
M128.380371,105.703598 
	C128.461823,105.951378 128.316696,106.260979 127.891586,106.535507 
	C127.677063,106.170418 127.857780,105.925415 128.380371,105.703598 
z"/>
<path fill="#46BF97" opacity="1.000000" stroke="none" 
	d="
M127.282898,106.668503 
	C127.373047,106.913475 127.259438,107.224319 126.871307,107.475769 
	C126.656555,107.117615 126.817337,106.890282 127.282898,106.668503 
z"/>
<path fill="#1AC18B" opacity="1.000000" stroke="none" 
	d="
M140.308044,104.043800 
	C140.253616,103.842514 140.461899,103.549408 140.923706,103.151237 
	C140.975082,103.348106 140.772934,103.650047 140.308044,104.043800 
z"/>
<path fill="#46BF97" opacity="1.000000" stroke="none" 
	d="
M129.382828,104.727554 
	C129.479523,104.967377 129.344086,105.285774 128.926727,105.610237 
	C128.688095,105.267990 128.856720,104.997932 129.382828,104.727554 
z"/>
<path fill="#1EC990" opacity="1.000000" stroke="none" 
	d="
M147.327606,96.109840 
	C147.262299,95.903999 147.465622,95.592583 147.939209,95.184486 
	C148.005066,95.393295 147.800644,95.698776 147.327606,96.109840 
z"/>
<path fill="#4854B6" opacity="1.000000" stroke="none" 
	d="
M146.717621,106.993500 
	C146.801224,107.214600 146.613785,107.499062 146.186066,107.884850 
	C146.112717,107.676407 146.279648,107.366631 146.717621,106.993500 
z"/>
<path fill="#1EC990" opacity="1.000000" stroke="none" 
	d="
M148.368195,95.120354 
	C148.278275,94.897194 148.456039,94.584137 148.886871,94.158997 
	C148.971893,94.374763 148.803879,94.702606 148.368195,95.120354 
z"/>
<path fill="#46BF97" opacity="1.000000" stroke="none" 
	d="
M130.480545,103.613708 
	C130.576630,103.855537 130.416245,104.212074 129.948944,104.613739 
	C129.836060,104.348717 130.030075,104.038567 130.480545,103.613708 
z"/>
<path fill="#3CB58F" opacity="1.000000" stroke="none" 
	d="
M122.399017,118.105591 
	C122.375473,117.866508 122.653946,117.563408 123.253693,117.233032 
	C123.283661,117.484360 122.992348,117.762970 122.399017,118.105591 
z"/>
<path fill="#1AC18B" opacity="1.000000" stroke="none" 
	d="
M146.254822,97.971603 
	C146.089752,97.758095 146.230789,97.500717 146.624756,97.152588 
	C146.928406,97.394402 146.822830,97.683037 146.254822,97.971603 
z"/>
<path fill="#3CB58F" opacity="1.000000" stroke="none" 
	d="
M127.377083,115.115585 
	C127.350250,114.867088 127.627647,114.570992 128.219269,114.245865 
	C128.249435,114.500549 127.965370,114.784271 127.377083,115.115585 
z"/>
<path fill="#3CB58F" opacity="1.000000" stroke="none" 
	d="
M129.269928,114.003296 
	C129.229935,113.763100 129.475891,113.492233 129.996902,113.166977 
	C130.033249,113.399269 129.794556,113.685951 129.269928,114.003296 
z"/>
<path fill="#3CB58F" opacity="1.000000" stroke="none" 
	d="
M120.594063,112.771255 
	C120.658829,113.002907 120.459473,113.319229 119.968430,113.672119 
	C119.894470,113.424431 120.112206,113.140175 120.594063,112.771255 
z"/>
<path fill="#46BF97" opacity="1.000000" stroke="none" 
	d="
M135.470795,97.826004 
	C135.576828,98.042702 135.442734,98.376442 135.042587,98.802246 
	C134.927917,98.577225 135.079300,98.260132 135.470795,97.826004 
z"/>
<path fill="#1AC18B" opacity="1.000000" stroke="none" 
	d="
M145.318100,99.068558 
	C145.235626,98.863419 145.410370,98.562759 145.819870,98.139328 
	C145.894867,98.335388 145.735092,98.654221 145.318100,99.068558 
z"/>
<path fill="#010116" opacity="1.000000" stroke="none" 
	d="
M181.734070,174.978180 
	C181.878006,172.536758 182.264847,170.363953 182.651688,168.191147 
	C183.308853,168.355560 183.966003,168.519974 184.623169,168.684402 
	C184.742035,171.139694 186.226318,173.960327 181.734070,174.978180 
z"/>
<path fill="#282FBA" opacity="1.000000" stroke="none" 
	d="
M146.018066,143.987793 
	C146.012314,141.290176 146.006577,138.592545 146.008698,135.445526 
	C148.707047,134.996613 151.397552,134.997086 154.533966,134.993774 
	C154.983673,137.689713 154.987442,140.389404 154.619965,143.585052 
	C151.505188,144.049942 148.761627,144.018860 146.018066,143.987793 
z"/>
<path fill="#2628AD" opacity="1.000000" stroke="none" 
	d="
M146.006470,144.415192 
	C148.761627,144.018860 151.505188,144.049942 154.612305,144.032806 
	C154.975876,146.510895 154.975876,149.037186 154.975876,151.572510 
	C151.721893,150.937851 149.280273,150.461655 146.420319,149.967850 
	C145.999619,148.247711 145.997253,146.545151 146.006470,144.415192 
z"/>
</svg>